<svg xmlns="http://www.w3.org/2000/svg" viewBox="0 0 232.34 30.29"><defs><style>.cls-1{fill:#fff;}</style></defs><title>Logo_ArmPelion_White</title><g id="Layer_2" data-name="Layer 2"><g id="MBED"><path class="cls-1" d="M6.61,15.28c0,4.85,3.06,8.9,7.77,8.9,4.12,0,7.91-3,7.91-8.84,0-6.11-3.79-9-7.91-9-4.72,0-7.77,4-7.77,9M21.89,1.26H28.4v28H21.89V26.34a10.75,10.75,0,0,1-8.34,3.73C4.91,30.07,0,22.89,0,15.19,0,6.09,6.24.51,13.62.51a10.17,10.17,0,0,1,8.3,4Z"/><path class="cls-1" d="M36.15,1.2h6.51V3.72a11,11,0,0,1,2.72-2.33,7.45,7.45,0,0,1,4-.93A9.68,9.68,0,0,1,54.5,1.79L51.84,7.7a5.86,5.86,0,0,0-3.32-1,5.07,5.07,0,0,0-4.05,1.53c-1.79,1.93-1.79,4.58-1.79,6.44v14.5H36.15Z"/><path class="cls-1" d="M58.69,1.2H65.2V3.79A8.59,8.59,0,0,1,72.11.47a8.2,8.2,0,0,1,7.24,4.12A9.89,9.89,0,0,1,87.65.47a9,9,0,0,1,8,4.38c.53.93,1.46,3,1.46,7V29.17H90.55V13.76c0-3.12-.33-4.38-.6-5A3.69,3.69,0,0,0,86.23,6.3a4.79,4.79,0,0,0-3.85,2.06c-1.13,1.59-1.26,4-1.26,6.38V29.17H74.61V13.76c0-3.12-.33-4.38-.6-5A3.69,3.69,0,0,0,70.29,6.3a4.79,4.79,0,0,0-3.85,2.06c-1.13,1.59-1.26,4-1.26,6.38V29.17H58.67Z"/><path class="cls-1" d="M116.65,1.17c2.8,0,5.14.33,7,2a7.79,7.79,0,0,1,2.54,6c0,3.93-2.46,7.81-8.81,7.81h-2.72V29h-3.09V1.17Zm-2,12.83h2.55c3.68,0,5.89-1.84,5.89-5.06,0-4.43-4.13-4.85-6.14-4.85h-2.3Z"/><path class="cls-1" d="M145.1,4.09H133.74v8.28h11v2.92h-11V26.11H145.1V29H130.65V1.17H145.1Z"/><path class="cls-1" d="M153.88,1.17V26.11h7.68V29H150.79V1.17Z"/><path class="cls-1" d="M168.83,1.17V29h-3.09V1.17Z"/><path class="cls-1" d="M174.52,15.12a14.5,14.5,0,0,1,29,0,14.5,14.5,0,0,1-29,0Zm3.17,0a11.33,11.33,0,1,0,22.65,0,11.33,11.33,0,1,0-22.65,0Z"/><path class="cls-1" d="M207.53,29V0l21.72,22.77V1.17h3.09V30.29L210.62,7.52V29Z"/></g></g></svg>
